<?xml version="1.0" encoding="UTF-8"?><svg id="a" xmlns="http://www.w3.org/2000/svg" viewBox="0 0 30.16 24.17"><defs><style>.b{fill:#f7f8f8;}.c{fill:#fffffd;}.d{fill:#d8d9d8;}.e{stroke-dasharray:0 0 4.79 4.79;}.e,.f{fill:none;stroke:#f0cf54;stroke-linecap:round;stroke-miterlimit:10;stroke-width:2.55px;}</style></defs><g><path class="f" d="M9.61,9.89c-.02-.98,.13-1.92,.41-2.8"/><path class="e" d="M12.69,3.19c1.41-1.16,3.2-1.87,5.17-1.91,4.66-.1,8.51,3.6,8.61,8.25,.06,2.65-1.12,5.04-3,6.63"/><path class="f" d="M21.44,17.43c-.84,.37-1.74,.61-2.7,.69h-.04"/></g><g><path class="b" d="M26.39,8.84,2.8,14.83c-.75,.06-1.25,.57-1.67,1.07-1.18,1.39-1.43,3.04-.73,4.68,.77,1.81,2.25,2.82,4.24,2.91,1.71,.07,3.42,0,5.14,.02,.43,0,.67-.1,.81-.54,.38-1.26,.39-2.75,1.57-3.35,.31-.16,.26,.29,0,0-.29-.33,.38-.79,.32-1.23-.14-1.09,.53-2.14,1.57-2.53,1.04-.39,2.31-.02,2.94,.85,.66,.93,1.54,1.64,.73,2.53-.32,.36-.54,.89-.26,1.02,1.2,.57,1.37,1.5,1.74,2.73,.12,.41,.3,.54,.72,.53,1.95-.06,3.91,.05,5.87-.11,.97-.08,1.87-.24,2.71-.72,1.01-.57,1.82-1.92,1.68-2.84-.21-1.36-.93-2.37-2.1-3.11-.82-.52-1.71-.8-2.63-1.02-.13-.03-.33,0-.3-.22,.02-.2,.21-.16,.35-.16,.1,0,.21,0,.31,.01,.2,.02,.75,.87,.88,.67,.13-.2-.22-.86-.32-1.07-.74-1.5-2.04-2.91-3.96-3.21-.14-.03-.29,.06-.33-.22-.5-3.08-3.44-5.42-6.81-4.93-2.79,.4-4.92,2.77-6.45,4.84-.3,.1-.18,.59-1.12,.19-.17-.07-.32-.19-.48-.27-1.12-.59-2.51-.37-3.43,.5-.88,.83-1.01,1.89-.96,3.01h0ZM17.32,5.09"/><path class="d" d="M2.79,15.49c-.05-1.12,.07-2.17,.96-3.01,.92-.87,2.32-1.09,3.43-.5,.16,.09,.31,.2,.48,.27,.94,.41,1.01,.37,1.47-.52,1.28-2.52,3.31-4.1,6.1-4.5,3.37-.48,6.31,1.85,6.81,4.93,.05,.28,.19,.2,.33,.22,1.8,.32,3.03,1.39,3.87,2.96,.11,.21,.23,.49,.1,.69-.13,.2-.38-.02-.57-.04-.1-.01-.21-.02-.31-.01-.14,0-.32-.04-.35,.16-.02,.21,.17,.19,.3,.22,.92,.22,1.81,.5,2.63,1.02,1.16,.74,1.88,1.75,2.1,3.11,.14,.92-.67,2.26-1.68,2.84-.84,.48-1.74,.65-2.71,.72-1.96,.16-3.91,.04-5.87,.11-.42,.01-.6-.11-.72-.53-.36-1.23-1.06-2.21-2.25-2.78-.29-.14-.46-.27-.14-.63,.81-.89,.84-1.95,.18-2.88-.63-.87-1.9-1.24-2.94-.85-1.04,.4-1.71,1.45-1.57,2.53,.06,.44,.27,.83,.56,1.15,.26,.29,.17,.44-.14,.6-1.18,.6-1.94,1.57-2.32,2.83-.13,.45-.38,.55-.81,.54-1.71-.02-3.43,.05-5.14-.02-1.98-.08-3.47-1.1-4.24-2.91-.7-1.65-.45-3.3,.73-4.68,.42-.49,.93-1.01,1.67-1.07,.03,.04-.05,.16,.09,.13l-.09-.13Z"/><path class="c" d="M2.87,15.99l.09,.13c-.14,.03-.05-.09-.09-.13h0Z"/></g></svg>