<?xml version="1.0" encoding="UTF-8"?><svg id="a" xmlns="http://www.w3.org/2000/svg" viewBox="0 0 28.71627 28.71627"><defs><style>.b{fill:#ebeced;}.c{fill:none;stroke:#ebeced;stroke-miterlimit:10;stroke-width:1.762px;}</style></defs><path class="b" d="M8.92198,27.269c1.81205,.67952,3.51085,1.13253,5.54941,1.13253,1.58554,0,3.6241-.33976,5.3229-1.13253,1.6988-.67952,3.85061-2.26506,4.98314-3.73736-.79277-3.17109-1.81205-5.43616-10.4193-5.43616s-9.85303,2.26506-10.4193,5.3229"/><path class="b" d="M18.322,11.07379c0,2.37832-1.6988,4.64338-3.96386,4.64338s-3.96386-2.37832-3.96386-4.64338,1.01928-3.96386,3.96386-3.96386,3.96386,1.6988,3.96386,3.96386Z"/><path class="c" d="M27.83527,14.35813c0,3.17109-1.13253,6.11567-2.94458,8.38074-2.49157,3.05784-6.22893,5.0964-10.53255,5.0964-4.07712,0-7.81447-1.81205-10.30604-4.75663-2.03856-2.37832-3.17109-5.43616-3.17109-8.7205,0-7.36146,6.00242-13.47714,13.47714-13.47714s13.47713,6.11567,13.47713,13.47713Z"/></svg>